<?xml version="1.0" encoding="UTF-8" standalone="no"?>
<svg
   sodipodi:docname="rectangle_defect.svg"
   width="100mm"
   height="100mm"
   viewBox="0 0 100 100"
   version="1.1"
   id="svg1632"
   inkscape:version="1.2.1 (9c6d41e410, 2022-07-14)"
   xmlns:inkscape="http://www.inkscape.org/namespaces/inkscape"
   xmlns:sodipodi="http://sodipodi.sourceforge.net/DTD/sodipodi-0.dtd"
   xmlns:xlink="http://www.w3.org/1999/xlink"
   xmlns="http://www.w3.org/2000/svg"
   xmlns:svg="http://www.w3.org/2000/svg"
   xmlns:rdf="http://www.w3.org/1999/02/22-rdf-syntax-ns#"
   xmlns:cc="http://creativecommons.org/ns#"
   xmlns:dc="http://purl.org/dc/elements/1.1/"
   xmlns:osb="http://www.openswatchbook.org/uri/2009/osb">
  <defs
     id="defs1626">
    <marker
       inkscape:isstock="true"
       style="overflow:visible"
       id="Arrow1Lend"
       refX="0"
       refY="0"
       orient="auto"
       inkscape:stockid="Arrow1Lend">
      <path
         transform="matrix(-0.8,0,0,-0.8,-10,0)"
         style="fill:#000000;fill-opacity:1;fill-rule:evenodd;stroke:#000000;stroke-width:1pt;stroke-opacity:1"
         d="M 0,0 5,-5 -12.5,0 5,5 Z"
         id="path3988" />
    </marker>
    <marker
       inkscape:isstock="true"
       style="overflow:visible"
       id="Arrow1Lstart"
       refX="0"
       refY="0"
       orient="auto"
       inkscape:stockid="Arrow1Lstart">
      <path
         transform="matrix(0.8,0,0,0.8,10,0)"
         style="fill:#000000;fill-opacity:1;fill-rule:evenodd;stroke:#000000;stroke-width:1pt;stroke-opacity:1"
         d="M 0,0 5,-5 -12.5,0 5,5 Z"
         id="path3985" />
    </marker>
    <pattern
       patternTransform="matrix(0.09631279,-0.09631279,0.15191512,0.15191512,-32.931005,38.795916)"
       id="pattern3934"
       xlink:href="#pattern3670"
       inkscape:collect="always" />
    <linearGradient
       id="linearGradient3744"
       osb:paint="solid">
      <stop
         id="stop3742"
         offset="0"
         style="stop-color:#000000;stop-opacity:1;" />
    </linearGradient>
    <pattern
       patternTransform="translate(-619.07482,40.180971)"
       id="pattern3717"
       xlink:href="#pattern3670"
       inkscape:collect="always" />
    <pattern
       id="pattern3670"
       patternTransform="translate(-158.42064,-90.922228)"
       height="588.40372"
       width="732.36069"
       patternUnits="userSpaceOnUse">
      <g
         id="g3668"
         transform="matrix(2.6725296,2.6725296,-2.6725296,2.6725296,391.3589,8.3089757)">
        <path
           id="path3451"
           d="M -74.679784,71.757842 62.336583,-65.258525"
           style="fill:none;stroke:#000000;stroke-width:0.264583px;stroke-linecap:butt;stroke-linejoin:miter;stroke-opacity:1" />
        <path
           style="fill:none;stroke:#000000;stroke-width:0.264583px;stroke-linecap:butt;stroke-linejoin:miter;stroke-opacity:1"
           d="M -71.999379,74.438247 65.016995,-62.578128"
           id="path3451-9" />
        <path
           style="fill:none;stroke:#000000;stroke-width:0.264583px;stroke-linecap:butt;stroke-linejoin:miter;stroke-opacity:1"
           d="M -69.318975,77.118651 67.6974,-59.897723"
           id="path3451-0" />
        <path
           style="fill:none;stroke:#000000;stroke-width:0.264583px;stroke-linecap:butt;stroke-linejoin:miter;stroke-opacity:1"
           d="M -66.63857,79.799056 70.377804,-57.217319"
           id="path3451-6" />
        <path
           style="fill:none;stroke:#000000;stroke-width:0.264583px;stroke-linecap:butt;stroke-linejoin:miter;stroke-opacity:1"
           d="M -63.958166,82.47946 73.058208,-54.536915"
           id="path3451-2" />
        <path
           style="fill:none;stroke:#000000;stroke-width:0.264583px;stroke-linecap:butt;stroke-linejoin:miter;stroke-opacity:1"
           d="M -61.277763,85.159863 75.738605,-51.856504"
           id="path3451-20" />
        <path
           style="fill:none;stroke:#000000;stroke-width:0.264583px;stroke-linecap:butt;stroke-linejoin:miter;stroke-opacity:1"
           d="M -58.597359,87.840267 78.419015,-49.176108"
           id="path3451-8" />
        <path
           style="fill:none;stroke:#000000;stroke-width:0.264583px;stroke-linecap:butt;stroke-linejoin:miter;stroke-opacity:1"
           d="M -55.916954,90.520672 81.09942,-46.495703"
           id="path3451-84" />
        <path
           style="fill:none;stroke:#000000;stroke-width:0.264583px;stroke-linecap:butt;stroke-linejoin:miter;stroke-opacity:1"
           d="M -53.23655,93.201076 83.779824,-43.815299"
           id="path3451-62" />
        <path
           style="fill:none;stroke:#000000;stroke-width:0.264583px;stroke-linecap:butt;stroke-linejoin:miter;stroke-opacity:1"
           d="M -47.87574,98.561886 89.140634,-38.454489"
           id="path3451-4" />
        <path
           style="fill:none;stroke:#000000;stroke-width:0.264583px;stroke-linecap:butt;stroke-linejoin:miter;stroke-opacity:1"
           d="M -45.195336,101.24229 91.821038,-35.774085"
           id="path3451-22" />
        <path
           style="fill:none;stroke:#000000;stroke-width:0.264583px;stroke-linecap:butt;stroke-linejoin:miter;stroke-opacity:1"
           d="M -37.154124,109.2835 99.862257,-27.73288"
           id="path3451-98" />
        <path
           style="fill:none;stroke:#000000;stroke-width:0.264583px;stroke-linecap:butt;stroke-linejoin:miter;stroke-opacity:1"
           d="M -31.793315,114.64431 105.22306,-22.372064"
           id="path3451-1" />
        <path
           style="fill:none;stroke:#000000;stroke-width:0.264583px;stroke-linecap:butt;stroke-linejoin:miter;stroke-opacity:1"
           d="M -29.112909,117.32472 107.90347,-19.691658"
           id="path3451-64" />
        <path
           style="fill:none;stroke:#000000;stroke-width:0.264583px;stroke-linecap:butt;stroke-linejoin:miter;stroke-opacity:1"
           d="M -50.556145,95.881481 86.46023,-41.134893"
           id="path3451-840" />
        <path
           id="path3451-9-4"
           d="M -42.514932,103.92269 94.501442,-33.09368"
           style="fill:none;stroke:#000000;stroke-width:0.264583px;stroke-linecap:butt;stroke-linejoin:miter;stroke-opacity:1" />
        <path
           id="path3451-0-1"
           d="M -39.834528,106.6031 97.181854,-30.413283"
           style="fill:none;stroke:#000000;stroke-width:0.264583px;stroke-linecap:butt;stroke-linejoin:miter;stroke-opacity:1" />
        <path
           id="path3451-6-1"
           d="M -34.47372,111.96391 102.54266,-25.052475"
           style="fill:none;stroke:#000000;stroke-width:0.264583px;stroke-linecap:butt;stroke-linejoin:miter;stroke-opacity:1" />
        <path
           id="path3451-2-8"
           d="M -26.432508,120.00512 110.58387,-17.011264"
           style="fill:none;stroke:#000000;stroke-width:0.264583px;stroke-linecap:butt;stroke-linejoin:miter;stroke-opacity:1" />
        <path
           id="path3451-20-9"
           d="M -23.7521,122.68553 113.26427,-14.330842"
           style="fill:none;stroke:#000000;stroke-width:0.264583px;stroke-linecap:butt;stroke-linejoin:miter;stroke-opacity:1" />
        <path
           id="path3451-8-2"
           d="M -21.071699,125.36593 115.94468,-11.650447"
           style="fill:none;stroke:#000000;stroke-width:0.264583px;stroke-linecap:butt;stroke-linejoin:miter;stroke-opacity:1" />
        <path
           id="path3451-84-7"
           d="M -18.391299,128.04633 118.62507,-8.9700403"
           style="fill:none;stroke:#000000;stroke-width:0.264583px;stroke-linecap:butt;stroke-linejoin:miter;stroke-opacity:1" />
        <path
           id="path3451-62-2"
           d="M -15.71089,130.72674 121.30549,-6.2896453"
           style="fill:none;stroke:#000000;stroke-width:0.264583px;stroke-linecap:butt;stroke-linejoin:miter;stroke-opacity:1" />
        <path
           id="path3451-4-7"
           d="M -10.350083,136.08754 126.66628,-0.92882409"
           style="fill:none;stroke:#000000;stroke-width:0.264583px;stroke-linecap:butt;stroke-linejoin:miter;stroke-opacity:1" />
        <path
           id="path3451-22-9"
           d="M -4.9892736,141.44835 132.0271,4.431978"
           style="fill:none;stroke:#000000;stroke-width:0.264583px;stroke-linecap:butt;stroke-linejoin:miter;stroke-opacity:1" />
        <path
           id="path3451-98-4"
           d="M 0.37153344,146.80916 137.38791,9.792785"
           style="fill:none;stroke:#000000;stroke-width:0.264583px;stroke-linecap:butt;stroke-linejoin:miter;stroke-opacity:1" />
        <path
           id="path3451-1-9"
           d="M 5.7323433,152.16997 142.74872,15.153588"
           style="fill:none;stroke:#000000;stroke-width:0.264583px;stroke-linecap:butt;stroke-linejoin:miter;stroke-opacity:1" />
        <path
           id="path3451-64-0"
           d="M 11.093157,157.53078 148.10954,20.514401"
           style="fill:none;stroke:#000000;stroke-width:0.264583px;stroke-linecap:butt;stroke-linejoin:miter;stroke-opacity:1" />
        <path
           style="fill:none;stroke:#000000;stroke-width:0.264583px;stroke-linecap:butt;stroke-linejoin:miter;stroke-opacity:1"
           d="M -13.030483,133.40714 123.98589,-3.6092311"
           id="path3451-7" />
        <path
           id="path3451-9-46"
           d="M -7.669682,138.76794 129.34669,1.7515695"
           style="fill:none;stroke:#000000;stroke-width:0.264583px;stroke-linecap:butt;stroke-linejoin:miter;stroke-opacity:1" />
        <path
           id="path3451-0-7"
           d="M -2.3088679,144.12876 134.70751,7.1123836"
           style="fill:none;stroke:#000000;stroke-width:0.264583px;stroke-linecap:butt;stroke-linejoin:miter;stroke-opacity:1" />
        <path
           id="path3451-6-4"
           d="M 3.0519348,149.48956 140.06831,12.473186"
           style="fill:none;stroke:#000000;stroke-width:0.264583px;stroke-linecap:butt;stroke-linejoin:miter;stroke-opacity:1" />
        <path
           id="path3451-2-7"
           d="M 8.4127518,154.85038 145.42913,17.834003"
           style="fill:none;stroke:#000000;stroke-width:0.264583px;stroke-linecap:butt;stroke-linejoin:miter;stroke-opacity:1" />
        <path
           id="path3451-20-8"
           d="M 13.773558,160.21118 150.78993,23.19481"
           style="fill:none;stroke:#000000;stroke-width:0.264583px;stroke-linecap:butt;stroke-linejoin:miter;stroke-opacity:1" />
        <path
           id="path3451-8-3"
           d="M 16.453959,162.89159 153.47033,25.875211"
           style="fill:none;stroke:#000000;stroke-width:0.264583px;stroke-linecap:butt;stroke-linejoin:miter;stroke-opacity:1" />
        <path
           id="path3451-84-3"
           d="M 19.134375,165.572 156.15075,28.555627"
           style="fill:none;stroke:#000000;stroke-width:0.264583px;stroke-linecap:butt;stroke-linejoin:miter;stroke-opacity:1" />
        <path
           id="path3451-62-4"
           d="M 21.814776,168.2524 158.83115,31.236028"
           style="fill:none;stroke:#000000;stroke-width:0.264583px;stroke-linecap:butt;stroke-linejoin:miter;stroke-opacity:1" />
        <path
           id="path3451-4-4"
           d="M 24.495185,170.93281 161.51156,33.916436"
           style="fill:none;stroke:#000000;stroke-width:0.264583px;stroke-linecap:butt;stroke-linejoin:miter;stroke-opacity:1" />
        <path
           id="path3451-22-5"
           d="M 27.175593,173.61322 164.19197,36.596845"
           style="fill:none;stroke:#000000;stroke-width:0.264583px;stroke-linecap:butt;stroke-linejoin:miter;stroke-opacity:1" />
        <path
           id="path3451-98-1"
           d="M 29.855995,176.29362 166.87238,39.277239"
           style="fill:none;stroke:#000000;stroke-width:0.264583px;stroke-linecap:butt;stroke-linejoin:miter;stroke-opacity:1" />
        <path
           id="path3451-1-1"
           d="M 32.536396,178.97402 169.55277,41.957648"
           style="fill:none;stroke:#000000;stroke-width:0.264583px;stroke-linecap:butt;stroke-linejoin:miter;stroke-opacity:1" />
        <path
           id="path3451-64-7"
           d="M 35.216797,181.65442 172.23317,44.638049"
           style="fill:none;stroke:#000000;stroke-width:0.264583px;stroke-linecap:butt;stroke-linejoin:miter;stroke-opacity:1" />
      </g>
    </pattern>
    <pattern
       id="pattern3719"
       patternTransform="translate(460.65417,-131.1032)"
       height="588.40374"
       width="732.36069"
       patternUnits="userSpaceOnUse">
      <rect
         style="fill:url(#pattern3717);stroke:none;stroke-width:0.999999"
         width="732.36066"
         height="588.40375"
         x="0"
         y="0"
         id="rect3715" />
    </pattern>
    <pattern
       id="pattern3884"
       patternTransform="translate(569.21337,-160.45199)"
       height="657.3689"
       width="750.71426"
       patternUnits="userSpaceOnUse">
      <rect
         style="fill:none;fill-opacity:1;stroke:none;stroke-width:0.999999"
         width="602.43256"
         height="533.97443"
         x="74.140816"
         y="0"
         id="rect3722"
         ry="0" />
      <path
         style="fill:none;stroke:#000000;stroke-width:0.999999px;stroke-linecap:butt;stroke-linejoin:miter;stroke-opacity:1"
         d="M 0,19.2534 H 750.71426"
         id="path3750" />
      <path
         id="path3750-3"
         d="M 0,38.0068 H 750.71426"
         style="fill:none;stroke:#000000;stroke-width:0.999999px;stroke-linecap:butt;stroke-linejoin:miter;stroke-opacity:1" />
      <path
         id="path3750-39"
         d="M 0,56.7602 H 750.71426"
         style="fill:none;stroke:#000000;stroke-width:0.999999px;stroke-linecap:butt;stroke-linejoin:miter;stroke-opacity:1" />
      <path
         id="path3750-4"
         d="M 0,75.513592 H 750.71426"
         style="fill:none;stroke:#000000;stroke-width:0.999999px;stroke-linecap:butt;stroke-linejoin:miter;stroke-opacity:1" />
      <path
         id="path3750-2"
         d="M 0,94.266988 H 750.71426"
         style="fill:none;stroke:#000000;stroke-width:0.999999px;stroke-linecap:butt;stroke-linejoin:miter;stroke-opacity:1" />
      <path
         id="path3750-7"
         d="M 0,113.02039 H 750.71426"
         style="fill:none;stroke:#000000;stroke-width:0.999999px;stroke-linecap:butt;stroke-linejoin:miter;stroke-opacity:1" />
      <path
         id="path3750-25"
         d="M 0,150.52719 H 750.71426"
         style="fill:none;stroke:#000000;stroke-width:0.999999px;stroke-linecap:butt;stroke-linejoin:miter;stroke-opacity:1" />
      <path
         id="path3750-6"
         d="M 0,131.77377 H 750.71426"
         style="fill:none;stroke:#000000;stroke-width:0.999999px;stroke-linecap:butt;stroke-linejoin:miter;stroke-opacity:1" />
      <path
         style="fill:none;stroke:#000000;stroke-width:0.999999px;stroke-linecap:butt;stroke-linejoin:miter;stroke-opacity:1"
         d="M 0,169.28058 H 750.71426"
         id="path3750-3-3" />
      <path
         style="fill:none;stroke:#000000;stroke-width:0.999999px;stroke-linecap:butt;stroke-linejoin:miter;stroke-opacity:1"
         d="M 0,188.03397 H 750.71426"
         id="path3750-39-9" />
      <path
         style="fill:none;stroke:#000000;stroke-width:0.999999px;stroke-linecap:butt;stroke-linejoin:miter;stroke-opacity:1"
         d="M 0,206.78738 H 750.71426"
         id="path3750-4-7" />
      <path
         style="fill:none;stroke:#000000;stroke-width:0.999999px;stroke-linecap:butt;stroke-linejoin:miter;stroke-opacity:1"
         d="M 0,244.29416 H 750.71426"
         id="path3750-2-1" />
      <path
         style="fill:none;stroke:#000000;stroke-width:0.999999px;stroke-linecap:butt;stroke-linejoin:miter;stroke-opacity:1"
         d="M 0,281.80097 H 750.71426"
         id="path3750-7-9" />
      <path
         style="fill:none;stroke:#000000;stroke-width:0.999999px;stroke-linecap:butt;stroke-linejoin:miter;stroke-opacity:1"
         d="M 0,338.06117 H 750.71426"
         id="path3750-25-9" />
      <path
         id="path3750-47"
         d="M 0,225.54076 H 750.71426"
         style="fill:none;stroke:#000000;stroke-width:0.999999px;stroke-linecap:butt;stroke-linejoin:miter;stroke-opacity:1" />
      <path
         style="fill:none;stroke:#000000;stroke-width:0.999999px;stroke-linecap:butt;stroke-linejoin:miter;stroke-opacity:1"
         d="M 0,263.04754 H 750.71426"
         id="path3750-3-4" />
      <path
         style="fill:none;stroke:#000000;stroke-width:0.999999px;stroke-linecap:butt;stroke-linejoin:miter;stroke-opacity:1"
         d="M 0,300.55435 H 750.71426"
         id="path3750-39-1" />
      <path
         style="fill:none;stroke:#000000;stroke-width:0.999999px;stroke-linecap:butt;stroke-linejoin:miter;stroke-opacity:1"
         d="M 0,319.30772 H 750.71426"
         id="path3750-4-76" />
      <path
         style="fill:none;stroke:#000000;stroke-width:0.999999px;stroke-linecap:butt;stroke-linejoin:miter;stroke-opacity:1"
         d="M 0,356.81453 H 750.71426"
         id="path3750-2-7" />
      <path
         style="fill:none;stroke:#000000;stroke-width:0.999999px;stroke-linecap:butt;stroke-linejoin:miter;stroke-opacity:1"
         d="M 0,394.32134 H 750.71426"
         id="path3750-7-7" />
      <path
         style="fill:none;stroke:#000000;stroke-width:0.999999px;stroke-linecap:butt;stroke-linejoin:miter;stroke-opacity:1"
         d="M 0,431.82813 H 750.71426"
         id="path3750-25-3" />
      <path
         id="path3750-1"
         d="M 0,375.56792 H 750.71426"
         style="fill:none;stroke:#000000;stroke-width:0.999999px;stroke-linecap:butt;stroke-linejoin:miter;stroke-opacity:1" />
      <path
         style="fill:none;stroke:#000000;stroke-width:0.999999px;stroke-linecap:butt;stroke-linejoin:miter;stroke-opacity:1"
         d="M 0,413.07474 H 750.71426"
         id="path3750-3-33" />
      <path
         style="fill:none;stroke:#000000;stroke-width:0.999999px;stroke-linecap:butt;stroke-linejoin:miter;stroke-opacity:1"
         d="M 0,450.58154 H 750.71426"
         id="path3750-39-3" />
      <path
         style="fill:none;stroke:#000000;stroke-width:0.999999px;stroke-linecap:butt;stroke-linejoin:miter;stroke-opacity:1"
         d="M 0,469.33493 H 750.71426"
         id="path3750-4-0" />
      <path
         style="fill:none;stroke:#000000;stroke-width:0.999999px;stroke-linecap:butt;stroke-linejoin:miter;stroke-opacity:1"
         d="M 0,488.0883 H 750.71426"
         id="path3750-2-6" />
      <path
         style="fill:none;stroke:#000000;stroke-width:0.999999px;stroke-linecap:butt;stroke-linejoin:miter;stroke-opacity:1"
         d="M 0,525.59509 H 750.71426"
         id="path3750-7-0" />
      <path
         style="fill:none;stroke:#000000;stroke-width:0.999999px;stroke-linecap:butt;stroke-linejoin:miter;stroke-opacity:1"
         d="M 0,563.10192 H 750.71426"
         id="path3750-25-8" />
      <path
         id="path3750-10"
         d="M 0,506.84171 H 750.71426"
         style="fill:none;stroke:#000000;stroke-width:0.999999px;stroke-linecap:butt;stroke-linejoin:miter;stroke-opacity:1" />
      <path
         style="fill:none;stroke:#000000;stroke-width:0.999999px;stroke-linecap:butt;stroke-linejoin:miter;stroke-opacity:1"
         d="M 0,544.34851 H 750.71426"
         id="path3750-3-7" />
      <path
         style="fill:none;stroke:#000000;stroke-width:0.999999px;stroke-linecap:butt;stroke-linejoin:miter;stroke-opacity:1"
         d="M 0,581.85529 H 750.71426"
         id="path3750-39-8" />
      <path
         style="fill:none;stroke:#000000;stroke-width:0.999999px;stroke-linecap:butt;stroke-linejoin:miter;stroke-opacity:1"
         d="M 0,600.6087 H 750.71426"
         id="path3750-4-3" />
      <path
         style="fill:none;stroke:#000000;stroke-width:0.999999px;stroke-linecap:butt;stroke-linejoin:miter;stroke-opacity:1"
         d="M 0,619.36215 H 750.71426"
         id="path3750-2-9" />
      <path
         style="fill:none;stroke:#000000;stroke-width:0.999999px;stroke-linecap:butt;stroke-linejoin:miter;stroke-opacity:1"
         d="M 0,638.11545 H 750.71426"
         id="path3750-7-8" />
      <path
         style="fill:none;stroke:#000000;stroke-width:0.999999px;stroke-linecap:butt;stroke-linejoin:miter;stroke-opacity:1"
         d="M 0,656.8689 H 750.71426"
         id="path3750-25-7" />
    </pattern>
    <marker
       inkscape:stockid="Arrow1Lstart"
       orient="auto"
       refY="0"
       refX="0"
       id="Arrow1Lstart-9"
       style="overflow:visible"
       inkscape:isstock="true">
      <path
         id="path3985-0"
         d="M 0,0 5,-5 -12.5,0 5,5 Z"
         style="fill:#000000;fill-opacity:1;fill-rule:evenodd;stroke:#000000;stroke-width:1pt;stroke-opacity:1"
         transform="matrix(0.8,0,0,0.8,10,0)" />
    </marker>
    <marker
       inkscape:stockid="Arrow1Lend"
       orient="auto"
       refY="0"
       refX="0"
       id="Arrow1Lend-0"
       style="overflow:visible"
       inkscape:isstock="true">
      <path
         id="path3988-9"
         d="M 0,0 5,-5 -12.5,0 5,5 Z"
         style="fill:#000000;fill-opacity:1;fill-rule:evenodd;stroke:#000000;stroke-width:1pt;stroke-opacity:1"
         transform="matrix(-0.8,0,0,-0.8,-10,0)" />
    </marker>
    <marker
       inkscape:stockid="Arrow1Lstart"
       orient="auto"
       refY="0"
       refX="0"
       id="Arrow1Lstart-9-6"
       style="overflow:visible"
       inkscape:isstock="true">
      <path
         id="path3985-0-6"
         d="M 0,0 5,-5 -12.5,0 5,5 Z"
         style="fill:#000000;fill-opacity:1;fill-rule:evenodd;stroke:#000000;stroke-width:1pt;stroke-opacity:1"
         transform="matrix(0.8,0,0,0.8,10,0)" />
    </marker>
    <marker
       inkscape:stockid="Arrow1Lend"
       orient="auto"
       refY="0"
       refX="0"
       id="Arrow1Lend-0-6"
       style="overflow:visible"
       inkscape:isstock="true">
      <path
         id="path3988-9-6"
         d="M 0,0 5,-5 -12.5,0 5,5 Z"
         style="fill:#000000;fill-opacity:1;fill-rule:evenodd;stroke:#000000;stroke-width:1pt;stroke-opacity:1"
         transform="matrix(-0.8,0,0,-0.8,-10,0)" />
    </marker>
    <marker
       inkscape:stockid="Arrow1Lstart"
       orient="auto"
       refY="0"
       refX="0"
       id="Arrow1Lstart-9-6-1"
       style="overflow:visible"
       inkscape:isstock="true">
      <path
         id="path3985-0-6-3"
         d="M 0,0 5,-5 -12.5,0 5,5 Z"
         style="fill:#000000;fill-opacity:1;fill-rule:evenodd;stroke:#000000;stroke-width:1pt;stroke-opacity:1"
         transform="matrix(0.8,0,0,0.8,10,0)" />
    </marker>
    <marker
       inkscape:stockid="Arrow1Lend"
       orient="auto"
       refY="0"
       refX="0"
       id="Arrow1Lend-0-6-2"
       style="overflow:visible"
       inkscape:isstock="true">
      <path
         id="path3988-9-6-9"
         d="M 0,0 5,-5 -12.5,0 5,5 Z"
         style="fill:#000000;fill-opacity:1;fill-rule:evenodd;stroke:#000000;stroke-width:1pt;stroke-opacity:1"
         transform="matrix(-0.8,0,0,-0.8,-10,0)" />
    </marker>
    <clipPath
       id="clipPath921">
      <path
         clip-rule="nonzero"
         d="M 0,0 H 5 V 6.226563 H 0 Z m 0,0"
         id="path3651" />
    </clipPath>
    <clipPath
       id="clipPath2623">
      <path
         clip-rule="nonzero"
         d="M 0,0 H 7 V 8.964844 H 0 Z m 0,0"
         id="path9212" />
    </clipPath>
    <clipPath
       id="clipPath2184">
      <path
         clip-rule="nonzero"
         d="m 7,1 h 8 V 8.964844 H 7 Z m 0,0"
         id="path2118" />
    </clipPath>
    <clipPath
       id="clipPath8444">
      <path
         clip-rule="nonzero"
         d="m 8,5 h 5.769531 v 7.113281 H 8 Z m 0,0"
         id="path3916" />
    </clipPath>
    <clipPath
       id="clipPath372">
      <path
         clip-rule="nonzero"
         d="M 0,0 H 7 V 8.964844 H 0 Z m 0,0"
         id="path1700" />
    </clipPath>
    <clipPath
       id="clipPath840">
      <path
         clip-rule="nonzero"
         d="m 7,1 h 5 V 8.964844 H 7 Z m 0,0"
         id="path1438" />
    </clipPath>
    <marker
       inkscape:stockid="Arrow1Lstart"
       orient="auto"
       refY="0"
       refX="0"
       id="Arrow1Lstart-9-6-1-1"
       style="overflow:visible"
       inkscape:isstock="true">
      <path
         id="path3985-0-6-3-6"
         d="M 0,0 5,-5 -12.5,0 5,5 Z"
         style="fill:#000000;fill-opacity:1;fill-rule:evenodd;stroke:#000000;stroke-width:1pt;stroke-opacity:1"
         transform="matrix(0.8,0,0,0.8,10,0)" />
    </marker>
    <marker
       inkscape:stockid="Arrow1Lend"
       orient="auto"
       refY="0"
       refX="0"
       id="Arrow1Lend-0-6-2-7"
       style="overflow:visible"
       inkscape:isstock="true">
      <path
         id="path3988-9-6-9-6"
         d="M 0,0 5,-5 -12.5,0 5,5 Z"
         style="fill:#000000;fill-opacity:1;fill-rule:evenodd;stroke:#000000;stroke-width:1pt;stroke-opacity:1"
         transform="matrix(-0.8,0,0,-0.8,-10,0)" />
    </marker>
    <clipPath
       id="clipPath7194">
      <path
         clip-rule="nonzero"
         d="m 8,5 h 5.835938 v 6.953125 H 8 Z m 0,0"
         id="path7607" />
    </clipPath>
    <clipPath
       id="clipPath5899">
      <path
         clip-rule="nonzero"
         d="m 12,5 h 5 v 6.953125 h -5 z m 0,0"
         id="path4522" />
    </clipPath>
    <clipPath
       id="clipPath965">
      <path
         clip-rule="nonzero"
         d="m 12,5 h 5 v 6.953125 h -5 z m 0,0"
         id="path4281" />
    </clipPath>
    <clipPath
       id="clipPath4465">
      <path
         clip-rule="nonzero"
         d="M 0,0 H 15 V 9.804688 H 0 Z m 0,0"
         id="path636" />
    </clipPath>
    <clipPath
       id="clipPath621">
      <path
         clip-rule="nonzero"
         d="M 0,0 H 12.746094 V 9.804688 H 0 Z m 0,0"
         id="path3003" />
    </clipPath>
  </defs>
  <sodipodi:namedview
     inkscape:window-maximized="1"
     inkscape:window-y="-8"
     inkscape:window-x="-8"
     inkscape:window-height="1017"
     inkscape:window-width="1920"
     inkscape:snap-object-midpoints="true"
     inkscape:snap-midpoints="true"
     inkscape:snap-smooth-nodes="true"
     inkscape:snap-intersection-paths="true"
     inkscape:object-paths="true"
     inkscape:snap-bbox-midpoints="true"
     inkscape:snap-bbox-edge-midpoints="true"
     inkscape:bbox-nodes="true"
     inkscape:bbox-paths="true"
     inkscape:snap-bbox="true"
     id="base"
     pagecolor="#ffffff"
     bordercolor="#666666"
     borderopacity="1.0"
     inkscape:pageopacity="0.0"
     inkscape:pageshadow="2"
     inkscape:zoom="2.9932997"
     inkscape:cx="179.56772"
     inkscape:cy="183.74371"
     inkscape:document-units="mm"
     inkscape:current-layer="layer1"
     inkscape:document-rotation="0"
     showgrid="false"
     inkscape:showpageshadow="0"
     inkscape:pagecheckerboard="1"
     inkscape:deskcolor="#d1d1d1" />
  <metadata
     id="metadata1629">
    <rdf:RDF>
      <cc:Work
         rdf:about="">
        <dc:format>image/svg+xml</dc:format>
        <dc:type
           rdf:resource="http://purl.org/dc/dcmitype/StillImage" />
      </cc:Work>
    </rdf:RDF>
  </metadata>
  <g
     inkscape:label="Ebene 1"
     inkscape:groupmode="layer"
     id="layer1">
    <rect
       ry="0"
       y="26.293379"
       x="15.335328"
       height="39.265976"
       width="69.00589"
       id="rect3928"
       style="fill:url(#pattern3934);fill-opacity:1;fill-rule:nonzero;stroke:#000000;stroke-width:0.434661;stroke-linecap:square;stroke-linejoin:round;stroke-miterlimit:4;stroke-dasharray:none;stroke-dashoffset:7.55906;stroke-opacity:1;paint-order:stroke fill markers" />
    <path
       id="path3936"
       d="m 15.335328,65.559352 v 15.46807"
       style="fill:none;stroke:#000000;stroke-width:0.21733;stroke-linecap:butt;stroke-linejoin:miter;stroke-miterlimit:4;stroke-dasharray:none;stroke-opacity:1" />
    <path
       id="path3936-0"
       d="M 42.939395,52.409964 V 73.29339"
       style="fill:none;stroke:#000000;stroke-width:0.21733;stroke-linecap:butt;stroke-linejoin:miter;stroke-miterlimit:4;stroke-dasharray:none;stroke-opacity:1" />
    <path
       style="fill:none;stroke:#000000;stroke-width:0.21733;stroke-linecap:butt;stroke-linejoin:miter;stroke-miterlimit:4;stroke-dasharray:none;stroke-opacity:1"
       d="m 84.341218,65.559352 v 15.46807"
       id="path3936-8" />
    <path
       id="path3936-8-1"
       d="M 80.638253,26.293378 H 95.798642"
       style="fill:none;stroke:#000000;stroke-width:0.21733;stroke-linecap:butt;stroke-linejoin:miter;stroke-miterlimit:4;stroke-dasharray:none;stroke-opacity:1" />
    <path
       style="fill:none;stroke:#000000;stroke-width:0.21733;stroke-linecap:butt;stroke-linejoin:miter;stroke-miterlimit:4;stroke-dasharray:none;stroke-opacity:1"
       d="M 80.63825,65.559354 H 95.740552"
       id="path3936-8-1-5" />
    <path
       style="fill:none;stroke:#000000;stroke-width:0.21733;stroke-linecap:butt;stroke-linejoin:miter;stroke-miterlimit:4;stroke-dasharray:none;stroke-opacity:1"
       d="M 6.8145864,65.547851 H 21.916888"
       id="path3936-8-1-5-3" />
    <path
       style="fill:none;stroke:#000000;stroke-width:0.217;stroke-linecap:butt;stroke-linejoin:miter;stroke-miterlimit:4;stroke-dasharray:none;stroke-opacity:1"
       d="M 6.814586,52.518462 H 42.830728"
       id="path3936-8-1-5-0" />
    <path
       style="fill:none;stroke:#000000;stroke-width:0.217;stroke-linecap:butt;stroke-linejoin:miter;stroke-miterlimit:4;stroke-dasharray:none;stroke-opacity:1"
       d="M 6.814586,33.402871 H 42.830728"
       id="path3936-8-1-5-0-0" />
    <path
       sodipodi:nodetypes="cc"
       id="path3983"
       d="M 15.800014,77.73268 H 83.891052"
       style="fill:none;stroke:#000000;stroke-width:0.21733;stroke-linecap:butt;stroke-linejoin:bevel;stroke-miterlimit:4;stroke-dasharray:none;stroke-opacity:1;marker-start:url(#Arrow1Lstart);marker-end:url(#Arrow1Lend)" />
    <path
       style="fill:none;stroke:#000000;stroke-width:0.21733;stroke-linecap:butt;stroke-linejoin:bevel;stroke-miterlimit:4;stroke-dasharray:none;stroke-opacity:1;marker-start:url(#Arrow1Lstart-9);marker-end:url(#Arrow1Lend-0)"
       d="M 93.417125,26.715296 V 65.106941"
       id="path3983-8"
       sodipodi:nodetypes="cc" />
    <path
       style="fill:none;stroke:#000000;stroke-width:0.21733;stroke-linecap:butt;stroke-linejoin:bevel;stroke-miterlimit:4;stroke-dasharray:none;stroke-opacity:1;marker-start:url(#Arrow1Lstart-9-6);marker-end:url(#Arrow1Lend-0-6)"
       d="M 9.4494048,53.009228 V 65.027096"
       id="path3983-8-3"
       sodipodi:nodetypes="cc" />
    <path
       style="fill:none;stroke:#000000;stroke-width:0.21733;stroke-linecap:butt;stroke-linejoin:bevel;stroke-miterlimit:4;stroke-dasharray:none;stroke-opacity:1;marker-start:url(#Arrow1Lstart-9-6-1);marker-end:url(#Arrow1Lend-0-6-2)"
       d="M 9.4494046,34.00857 V 51.960974"
       id="path3983-8-3-7"
       sodipodi:nodetypes="cc" />
    <path
       style="fill:none;stroke:#000000;stroke-width:0.217329;stroke-linecap:butt;stroke-linejoin:bevel;stroke-miterlimit:4;stroke-dasharray:none;stroke-opacity:1;marker-start:url(#Arrow1Lstart-9-6-1-1);marker-end:url(#Arrow1Lend-0-6-2-7)"
       d="M 42.215545,71.525553 H 16.039721"
       id="path3983-8-3-7-0"
       sodipodi:nodetypes="cc" />
    <path
       style="fill:#000000;stroke-width:0.230008"
       d="m 42.845612,52.409962 c 0,0 -1.686935,-1.930351 -1.686935,-9.571314 0,-7.640966 1.686935,-9.571314 1.686935,-9.571314 0,0 1.686936,1.729064 1.686936,9.571314 0,7.802034 -1.686936,9.571314 -1.686936,9.571314 z"
       id="path490"
       sodipodi:nodetypes="cscsc" />
    <g
       inkscape:label=""
       transform="translate(2.8398009,56.925755)"
       id="g8000">
      <g
         fill="#000000"
         fill-opacity="1"
         id="g19"
         transform="matrix(0.352778,0,0,0.352778,-0.165365,-0.00216092)">
        <g
           id="use17"
           transform="translate(0,9.8030005)">
          <path
             d="M 8.4375,-8.203125 8.765625,-8.53125 c 0.625,-0.65625 1.15625,-0.8125 1.65625,-0.84375 0.15625,-0.015625 0.296875,-0.03125 0.296875,-0.28125 0,-0.140625 -0.140625,-0.140625 -0.171875,-0.140625 -0.171875,0 -0.359375,0.03125 -0.53125,0.03125 h -0.59375 c -0.40625,0 -0.859375,-0.03125 -1.265625,-0.03125 -0.09375,0 -0.25,0 -0.25,0.265625 0,0.140625 0.140625,0.15625 0.1875,0.15625 0.421875,0.015625 0.421875,0.234375 0.421875,0.328125 0,0.15625 -0.109375,0.375 -0.390625,0.703125 l -3.421875,3.90625 -1.625,-4.359375 C 3,-9 3,-9.015625 3,-9.046875 3,-9.359375 3.578125,-9.375 3.765625,-9.375 c 0.171875,0 0.328125,0 0.328125,-0.265625 0,-0.15625 -0.140625,-0.15625 -0.21875,-0.15625 -0.25,0 -0.53125,0.03125 -0.78125,0.03125 H 1.5 c -0.25,0 -0.53125,-0.03125 -0.765625,-0.03125 -0.109375,0 -0.265625,0 -0.265625,0.265625 0,0.15625 0.140625,0.15625 0.34375,0.15625 0.703125,0 0.84375,0.125 0.96875,0.453125 l 1.78125,4.78125 c 0.015625,0.03125 0.046875,0.203125 0.046875,0.234375 0,0.046875 -0.703125,2.875 -0.734375,3.015625 C 2.75,-0.5 2.609375,-0.4375 1.6875,-0.421875 c -0.234375,0 -0.359375,0 -0.359375,0.28125 C 1.328125,0 1.484375,0 1.53125,0 1.796875,0 2.09375,-0.03125 2.359375,-0.03125 H 4.0625 C 4.3125,-0.03125 4.625,0 4.875,0 c 0.109375,0 0.28125,0 0.28125,-0.265625 0,-0.15625 -0.109375,-0.15625 -0.34375,-0.15625 -0.890625,0 -0.890625,-0.09375 -0.890625,-0.25 0,-0.109375 0.109375,-0.5625 0.1875,-0.84375 L 4.625,-3.578125 c 0.078125,-0.3125 0.078125,-0.34375 0.203125,-0.484375 z m 0,0"
             id="path31" />
        </g>
      </g>
      <g
         clip-path="url(#clipPath7194)"
         id="g25"
         transform="matrix(0.352778,0,0,0.352778,-0.165365,-0.00216092)">
        <g
           fill="#000000"
           fill-opacity="1"
           id="g23">
          <g
             id="use21"
             transform="translate(8.1499996,11.955)">
            <path
               d="m 5.140625,-6.8125 c 0,0 0,-0.109375 -0.125,-0.109375 -0.15625,0 -1.09375,0.09375 -1.265625,0.109375 -0.078125,0.015625 -0.140625,0.0625 -0.140625,0.1875 0,0.125 0.09375,0.125 0.234375,0.125 0.484375,0 0.5,0.0625 0.5,0.171875 L 4.3125,-6.125 3.71875,-3.765625 C 3.53125,-4.140625 3.25,-4.40625 2.796875,-4.40625 c -1.15625,0 -2.390625,1.46875 -2.390625,2.921875 0,0.9375 0.546875,1.59375 1.3125,1.59375 0.203125,0 0.703125,-0.046875 1.296875,-0.75 0.078125,0.421875 0.4375,0.75 0.90625,0.75 0.359375,0 0.578125,-0.234375 0.75,-0.546875 0.15625,-0.359375 0.296875,-0.96875 0.296875,-0.984375 0,-0.109375 -0.09375,-0.109375 -0.125,-0.109375 -0.09375,0 -0.109375,0.046875 -0.140625,0.1875 -0.171875,0.640625 -0.34375,1.234375 -0.75,1.234375 -0.28125,0 -0.296875,-0.265625 -0.296875,-0.453125 0,-0.25 0.015625,-0.3125 0.046875,-0.484375 z m -2.0625,5.625 C 3.015625,-1 3.015625,-0.984375 2.875,-0.8125 2.4375,-0.265625 2.03125,-0.109375 1.75,-0.109375 c -0.5,0 -0.640625,-0.546875 -0.640625,-0.9375 0,-0.5 0.3125,-1.71875 0.546875,-2.1875 0.3125,-0.578125 0.75,-0.953125 1.15625,-0.953125 0.640625,0 0.78125,0.8125 0.78125,0.875 0,0.0625 -0.015625,0.125 -0.03125,0.171875 z m 0,0"
               id="path35" />
          </g>
        </g>
      </g>
    </g>
    <g
       inkscape:label=""
       transform="translate(2.1655495,40.853347)"
       id="g8510">
      <g
         fill="#000000"
         fill-opacity="1"
         id="g8500"
         transform="matrix(0.352778,0,0,0.352778,-0.23151,-0.00216092)">
        <g
           id="g8498"
           transform="translate(0,9.8030005)">
          <path
             d="m 10.734375,-8.75 c 0.125,-0.484375 0.15625,-0.625 1.171875,-0.625 0.25,0 0.40625,0 0.40625,-0.265625 0,-0.15625 -0.140625,-0.15625 -0.21875,-0.15625 -0.265625,0 -0.5625,0.03125 -0.828125,0.03125 H 9.5625 c -0.265625,0 -0.5625,-0.03125 -0.84375,-0.03125 -0.09375,0 -0.265625,0 -0.265625,0.265625 0,0.15625 0.09375,0.15625 0.375,0.15625 0.859375,0 0.859375,0.109375 0.859375,0.265625 0,0.03125 0,0.109375 -0.0625,0.328125 L 8.75,-5.3125 H 4.421875 L 5.28125,-8.75 c 0.125,-0.484375 0.15625,-0.625 1.171875,-0.625 0.265625,0 0.40625,0 0.40625,-0.265625 0,-0.15625 -0.125,-0.15625 -0.21875,-0.15625 -0.25,0 -0.5625,0.03125 -0.828125,0.03125 H 4.109375 c -0.265625,0 -0.5625,-0.03125 -0.84375,-0.03125 -0.09375,0 -0.265625,0 -0.265625,0.265625 0,0.15625 0.09375,0.15625 0.375,0.15625 0.859375,0 0.859375,0.109375 0.859375,0.265625 0,0.03125 0,0.109375 -0.0625,0.328125 l -1.9375,7.71875 c -0.125,0.5 -0.15625,0.640625 -1.140625,0.640625 -0.328125,0 -0.4375,0 -0.4375,0.28125 C 0.65625,0 0.8125,0 0.859375,0 1.125,0 1.421875,-0.03125 1.6875,-0.03125 H 3.390625 C 3.65625,-0.03125 3.953125,0 4.234375,0 4.34375,0 4.5,0 4.5,-0.265625 c 0,-0.15625 -0.125,-0.15625 -0.34375,-0.15625 -0.875,0 -0.875,-0.109375 -0.875,-0.25 0,-0.015625 0,-0.109375 0.03125,-0.234375 L 4.296875,-4.890625 H 8.65625 c -0.25,0.953125 -0.984375,3.9375 -1.015625,4.03125 -0.15625,0.421875 -0.375,0.421875 -1.234375,0.4375 -0.171875,0 -0.296875,0 -0.296875,0.28125 C 6.109375,0 6.265625,0 6.3125,0 6.5625,0 6.875,-0.03125 7.140625,-0.03125 h 1.6875 C 9.109375,-0.03125 9.40625,0 9.6875,0 c 0.109375,0 0.265625,0 0.265625,-0.265625 0,-0.15625 -0.125,-0.15625 -0.34375,-0.15625 -0.875,0 -0.875,-0.109375 -0.875,-0.25 0,-0.015625 0,-0.109375 0.03125,-0.234375 z m 0,0"
             id="path8496" />
        </g>
      </g>
      <g
         clip-path="url(#clipPath5899)"
         id="g8508"
         transform="matrix(0.352778,0,0,0.352778,-0.23151,-0.00216092)">
        <g
           fill="#000000"
           fill-opacity="1"
           id="g8506">
          <g
             id="g8504"
             transform="translate(11.639,11.955)">
            <path
               d="m 5.140625,-6.8125 c 0,0 0,-0.109375 -0.125,-0.109375 -0.15625,0 -1.09375,0.09375 -1.265625,0.109375 -0.078125,0.015625 -0.140625,0.0625 -0.140625,0.1875 0,0.125 0.09375,0.125 0.234375,0.125 0.484375,0 0.5,0.0625 0.5,0.171875 L 4.3125,-6.125 3.71875,-3.765625 C 3.53125,-4.140625 3.25,-4.40625 2.796875,-4.40625 c -1.15625,0 -2.390625,1.46875 -2.390625,2.921875 0,0.9375 0.546875,1.59375 1.3125,1.59375 0.203125,0 0.703125,-0.046875 1.296875,-0.75 0.078125,0.421875 0.4375,0.75 0.90625,0.75 0.359375,0 0.578125,-0.234375 0.75,-0.546875 0.15625,-0.359375 0.296875,-0.96875 0.296875,-0.984375 0,-0.109375 -0.09375,-0.109375 -0.125,-0.109375 -0.09375,0 -0.109375,0.046875 -0.140625,0.1875 -0.171875,0.640625 -0.34375,1.234375 -0.75,1.234375 -0.28125,0 -0.296875,-0.265625 -0.296875,-0.453125 0,-0.25 0.015625,-0.3125 0.046875,-0.484375 z m -2.0625,5.625 C 3.015625,-1 3.015625,-0.984375 2.875,-0.8125 2.4375,-0.265625 2.03125,-0.109375 1.75,-0.109375 c -0.5,0 -0.640625,-0.546875 -0.640625,-0.9375 0,-0.5 0.3125,-1.71875 0.546875,-2.1875 0.3125,-0.578125 0.75,-0.953125 1.15625,-0.953125 0.640625,0 0.78125,0.8125 0.78125,0.875 0,0.0625 -0.015625,0.125 -0.03125,0.171875 z m 0,0"
               id="path8502" />
          </g>
        </g>
      </g>
    </g>
    <g
       inkscape:label=""
       transform="translate(25.324217,66.83255)"
       id="g9040">
      <g
         fill="#000000"
         fill-opacity="1"
         id="g9030"
         transform="matrix(0.352778,0,0,0.352778,-0.12678,-0.00216092)">
        <g
           id="g9028"
           transform="translate(0,9.8030005)">
          <path
             d="M 6.8125,-5.828125 5.46875,-8.96875 C 5.65625,-9.3125 6.078125,-9.359375 6.25,-9.375 c 0.09375,0 0.25,-0.015625 0.25,-0.265625 0,-0.15625 -0.125,-0.15625 -0.21875,-0.15625 -0.25,0 -0.53125,0.03125 -0.765625,0.03125 h -0.84375 c -0.875,0 -1.5,-0.03125 -1.515625,-0.03125 -0.109375,0 -0.265625,0 -0.265625,0.265625 0,0.15625 0.140625,0.15625 0.328125,0.15625 0.828125,0 0.890625,0.140625 1.03125,0.484375 L 5.953125,-4.90625 2.84375,-1.578125 C 2.328125,-1.015625 1.703125,-0.46875 0.640625,-0.421875 0.46875,-0.40625 0.359375,-0.40625 0.359375,-0.140625 0.359375,-0.09375 0.375,0 0.53125,0 0.734375,0 0.953125,-0.03125 1.140625,-0.03125 h 0.6875 C 2.28125,-0.03125 2.78125,0 3.234375,0 3.328125,0 3.5,0 3.5,-0.265625 3.5,-0.40625 3.40625,-0.421875 3.3125,-0.421875 3.03125,-0.4375 2.84375,-0.609375 2.84375,-0.828125 c 0,-0.25 0.171875,-0.421875 0.578125,-0.84375 L 4.703125,-3.0625 c 0.3125,-0.34375 1.078125,-1.171875 1.390625,-1.484375 l 1.515625,3.53125 c 0,0.03125 0.0625,0.171875 0.0625,0.1875 0,0.125 -0.3125,0.390625 -0.765625,0.40625 -0.09375,0 -0.25,0.015625 -0.25,0.28125 C 6.65625,0 6.796875,0 6.875,0 7.109375,0 7.40625,-0.03125 7.640625,-0.03125 H 9.21875 C 9.484375,-0.03125 9.75,0 10,0 c 0.09375,0 0.25,0 0.25,-0.265625 0,-0.15625 -0.140625,-0.15625 -0.265625,-0.15625 C 9.125,-0.4375 9.09375,-0.5 8.84375,-1.03125 L 6.953125,-5.484375 8.78125,-7.4375 C 8.921875,-7.578125 9.25,-7.9375 9.375,-8.078125 10,-8.71875 10.578125,-9.3125 11.734375,-9.375 c 0.140625,-0.015625 0.28125,-0.015625 0.28125,-0.265625 0,-0.15625 -0.125,-0.15625 -0.1875,-0.15625 -0.203125,0 -0.40625,0.03125 -0.609375,0.03125 H 10.5625 c -0.46875,0 -0.96875,-0.03125 -1.40625,-0.03125 -0.109375,0 -0.28125,0 -0.28125,0.265625 0,0.140625 0.109375,0.15625 0.1875,0.15625 0.234375,0.015625 0.46875,0.140625 0.46875,0.40625 v 0.03125 c -0.015625,0.109375 -0.046875,0.25 -0.203125,0.421875 z m 0,0"
             id="path9026" />
        </g>
      </g>
      <g
         clip-path="url(#clipPath965)"
         id="g9038"
         transform="matrix(0.352778,0,0,0.352778,-0.12678,-0.00216092)">
        <g
           fill="#000000"
           fill-opacity="1"
           id="g9036">
          <g
             id="g9034"
             transform="translate(11.658,11.955)">
            <path
               d="m 5.140625,-6.8125 c 0,0 0,-0.109375 -0.125,-0.109375 -0.15625,0 -1.09375,0.09375 -1.265625,0.109375 -0.078125,0.015625 -0.140625,0.0625 -0.140625,0.1875 0,0.125 0.09375,0.125 0.234375,0.125 0.484375,0 0.5,0.0625 0.5,0.171875 L 4.3125,-6.125 3.71875,-3.765625 C 3.53125,-4.140625 3.25,-4.40625 2.796875,-4.40625 c -1.15625,0 -2.390625,1.46875 -2.390625,2.921875 0,0.9375 0.546875,1.59375 1.3125,1.59375 0.203125,0 0.703125,-0.046875 1.296875,-0.75 0.078125,0.421875 0.4375,0.75 0.90625,0.75 0.359375,0 0.578125,-0.234375 0.75,-0.546875 0.15625,-0.359375 0.296875,-0.96875 0.296875,-0.984375 0,-0.109375 -0.09375,-0.109375 -0.125,-0.109375 -0.09375,0 -0.109375,0.046875 -0.140625,0.1875 -0.171875,0.640625 -0.34375,1.234375 -0.75,1.234375 -0.28125,0 -0.296875,-0.265625 -0.296875,-0.453125 0,-0.25 0.015625,-0.3125 0.046875,-0.484375 z m -2.0625,5.625 C 3.015625,-1 3.015625,-0.984375 2.875,-0.8125 2.4375,-0.265625 2.03125,-0.109375 1.75,-0.109375 c -0.5,0 -0.640625,-0.546875 -0.640625,-0.9375 0,-0.5 0.3125,-1.71875 0.546875,-2.1875 0.3125,-0.578125 0.75,-0.953125 1.15625,-0.953125 0.640625,0 0.78125,0.8125 0.78125,0.875 0,0.0625 -0.015625,0.125 -0.03125,0.171875 z m 0,0"
               id="path9032" />
          </g>
        </g>
      </g>
    </g>
    <g
       inkscape:label=""
       transform="translate(45.742737,73.29339)"
       id="g9580">
      <g
         clip-path="url(#clipPath4465)"
         id="g17"
         transform="matrix(0.352778,0,0,0.352778,-0.270095,-0.00216092)">
        <g
           fill="#000000"
           fill-opacity="1"
           id="g15">
          <g
             id="use13"
             transform="translate(0,9.8030005)">
            <path
               d="m 12.953125,-8.203125 c 0.328125,-0.5625 0.640625,-1.09375 1.5,-1.171875 0.140625,-0.015625 0.265625,-0.03125 0.265625,-0.265625 0,-0.15625 -0.125,-0.15625 -0.171875,-0.15625 -0.03125,0 -0.125,0.03125 -1.078125,0.03125 -0.4375,0 -0.875,-0.03125 -1.296875,-0.03125 -0.07813,0 -0.25,0 -0.25,0.265625 0,0.140625 0.109375,0.15625 0.203125,0.15625 0.28125,0.015625 0.734375,0.09375 0.734375,0.546875 0,0.171875 -0.04687,0.28125 -0.1875,0.515625 L 8.75,-1.453125 8.234375,-8.921875 c 0,-0.171875 0.15625,-0.4375 0.953125,-0.453125 0.1875,0 0.34375,0 0.34375,-0.28125 0,-0.140625 -0.15625,-0.140625 -0.21875,-0.140625 -0.5,0 -1.03125,0.03125 -1.546875,0.03125 h -0.75 c -0.21875,0 -0.46875,-0.03125 -0.6875,-0.03125 -0.09375,0 -0.265625,0 -0.265625,0.265625 0,0.15625 0.109375,0.15625 0.34375,0.15625 0.671875,0 0.671875,0.015625 0.71875,0.890625 l 0.046875,0.515625 -3.71875,6.515625 -0.53125,-7.390625 c 0,-0.171875 0,-0.515625 0.984375,-0.53125 0.15625,0 0.3125,0 0.3125,-0.265625 0,-0.15625 -0.125,-0.15625 -0.21875,-0.15625 -0.5,0 -1.03125,0.03125 -1.546875,0.03125 h -0.75 c -0.21875,0 -0.46875,-0.03125 -0.6875,-0.03125 -0.078125,0 -0.25,0 -0.25,0.265625 0,0.15625 0.109375,0.15625 0.3125,0.15625 0.671875,0 0.6875,0.078125 0.71875,0.546875 l 0.625,8.796875 C 2.4375,0.21875 2.453125,0.296875 2.625,0.296875 2.765625,0.296875 2.796875,0.25 2.921875,0.03125 l 4.28125,-7.46875 0.53125,7.40625 c 0.015625,0.25 0.03125,0.328125 0.203125,0.328125 0.140625,0 0.1875,-0.0625 0.296875,-0.265625 z m 0,0"
               id="path23" />
          </g>
        </g>
      </g>
    </g>
    <g
       inkscape:label=""
       transform="translate(88.1894,44.18384)"
       id="g10135">
      <g
         clip-path="url(#clipPath621)"
         id="g10133"
         transform="matrix(0.352778,0,0,0.352778,-0.23151,-0.00216092)">
        <g
           fill="#000000"
           fill-opacity="1"
           id="g10131">
          <g
             id="g10129"
             transform="translate(0,9.8030005)">
            <path
               d="m 10.734375,-8.75 c 0.125,-0.484375 0.15625,-0.625 1.171875,-0.625 0.25,0 0.40625,0 0.40625,-0.265625 0,-0.15625 -0.140625,-0.15625 -0.21875,-0.15625 -0.265625,0 -0.5625,0.03125 -0.828125,0.03125 H 9.5625 c -0.265625,0 -0.5625,-0.03125 -0.84375,-0.03125 -0.09375,0 -0.265625,0 -0.265625,0.265625 0,0.15625 0.09375,0.15625 0.375,0.15625 0.859375,0 0.859375,0.109375 0.859375,0.265625 0,0.03125 0,0.109375 -0.0625,0.328125 L 8.75,-5.3125 H 4.421875 L 5.28125,-8.75 c 0.125,-0.484375 0.15625,-0.625 1.171875,-0.625 0.265625,0 0.40625,0 0.40625,-0.265625 0,-0.15625 -0.125,-0.15625 -0.21875,-0.15625 -0.25,0 -0.5625,0.03125 -0.828125,0.03125 H 4.109375 c -0.265625,0 -0.5625,-0.03125 -0.84375,-0.03125 -0.09375,0 -0.265625,0 -0.265625,0.265625 0,0.15625 0.09375,0.15625 0.375,0.15625 0.859375,0 0.859375,0.109375 0.859375,0.265625 0,0.03125 0,0.109375 -0.0625,0.328125 l -1.9375,7.71875 c -0.125,0.5 -0.15625,0.640625 -1.140625,0.640625 -0.328125,0 -0.4375,0 -0.4375,0.28125 C 0.65625,0 0.8125,0 0.859375,0 1.125,0 1.421875,-0.03125 1.6875,-0.03125 H 3.390625 C 3.65625,-0.03125 3.953125,0 4.234375,0 4.34375,0 4.5,0 4.5,-0.265625 c 0,-0.15625 -0.125,-0.15625 -0.34375,-0.15625 -0.875,0 -0.875,-0.109375 -0.875,-0.25 0,-0.015625 0,-0.109375 0.03125,-0.234375 L 4.296875,-4.890625 H 8.65625 c -0.25,0.953125 -0.984375,3.9375 -1.015625,4.03125 -0.15625,0.421875 -0.375,0.421875 -1.234375,0.4375 -0.171875,0 -0.296875,0 -0.296875,0.28125 C 6.109375,0 6.265625,0 6.3125,0 6.5625,0 6.875,-0.03125 7.140625,-0.03125 h 1.6875 C 9.109375,-0.03125 9.40625,0 9.6875,0 c 0.109375,0 0.265625,0 0.265625,-0.265625 0,-0.15625 -0.125,-0.15625 -0.34375,-0.15625 -0.875,0 -0.875,-0.109375 -0.875,-0.25 0,-0.015625 0,-0.109375 0.03125,-0.234375 z m 0,0"
               id="path10127" />
          </g>
        </g>
      </g>
    </g>
  </g>
</svg>
